# xmcd
#
# Track frame offsets: 
#        150
#        18550
#        33435
#        51027
#        78712
#        95132
#        112722
#        127682
#        143020
#        159295
#        175120
#        190472
#        205590
#        221367
#        238372
#        255940
#        272112
#        289085
#        306607
#        322777
#
# Disc length: 4575 seconds
#
# Revision: 4
# Processed by: cddbd v1.5.2PL0 Copyright (c) Steve Scherf et al.
# Submitted via: ExactAudioCopy v0.99pb4
#
DISCID=1411dd14
DTITLE=Various Artist - Eighties Soul Weekender III - Disc 1
DYEAR=1997
DGENRE=Soul
TTITLE0=Marvin Gaye - Sexual Healing
TTITLE1=Ashford and Simpson - Solid
TTITLE2=Central Line - Walking Into Sunshine
TTITLE3=Change - The Glow Of Love
TTITLE4=Donald Byrd - Love Has Come Around
TTITLE5=Narada Michael Warden - I Shoulda Loved Ya
TTITLE6=Kleeer - Get Tough
TTITLE7=Stacy Lattisaw - Jump To The Beat
TTITLE8=Shalamar - Right In The Socket
TTITLE9=Beggar and Co. - (Somebody) Help Me Out
TTITLE10=Leon Hagwood - Don't Push It Don't Force It
TTITLE11=Dynasty - I Don't Wanna Be A Freak (But I Can't Help Myself)
TTITLE12=Jermaine Jackson - Let's Get Serious
TTITLE13=Total Contrast - Take's A Little Time
TTITLE14=Brass Construction - Movin'
TTITLE15=Loose Ends - Hangin' On A String
TTITLE16=Joyce Sims - Come Into My Life
TTITLE17=Blackbyrds, The - Rock Creek Park
TTITLE18=Atlantic Starr - Secret Lovers
TTITLE19=Champaign - How 'Bout Us
EXTD=YEAR: 1997
EXTT0=
EXTT1=
EXTT2=
EXTT3=
EXTT4=
EXTT5=
EXTT6=
EXTT7=
EXTT8=
EXTT9=
EXTT10=
EXTT11=
EXTT12=
EXTT13=
EXTT14=
EXTT15=
EXTT16=
EXTT17=
EXTT18=
EXTT19=
PLAYORDER=
